<?xml version="1.0" encoding="UTF-8" standalone="no"?>
<!-- Created with Inkscape (http://www.inkscape.org/) -->

<svg
   xmlns:dc="http://purl.org/dc/elements/1.1/"
   xmlns:cc="http://creativecommons.org/ns#"
   xmlns:rdf="http://www.w3.org/1999/02/22-rdf-syntax-ns#"
   xmlns:svg="http://www.w3.org/2000/svg"
   xmlns="http://www.w3.org/2000/svg"
   xmlns:sodipodi="http://sodipodi.sourceforge.net/DTD/sodipodi-0.dtd"
   xmlns:inkscape="http://www.inkscape.org/namespaces/inkscape"
   id="svg2"
   version="1.1"
   inkscape:version="0.91 r13725"
   xml:space="preserve"
   width="132.2215"
   height="116.36537"
   viewBox="0 0 132.2215 116.36537"
   sodipodi:docname="ArtStation-logomark-dark.svg"><metadata
     id="metadata8"><rdf:RDF><cc:Work
         rdf:about=""><dc:format>image/svg+xml</dc:format><dc:type
           rdf:resource="http://purl.org/dc/dcmitype/StillImage" /><dc:title></dc:title></cc:Work></rdf:RDF></metadata><defs
     id="defs6"><clipPath
       clipPathUnits="userSpaceOnUse"
       id="clipPath18"><path
         d="m 0,195.911 208.792,0 L 208.792,0 0,0 0,195.911 Z"
         id="path20"
         inkscape:connector-curvature="0" /></clipPath></defs><sodipodi:namedview
     pagecolor="#ffffff"
     bordercolor="#666666"
     borderopacity="1"
     objecttolerance="10"
     gridtolerance="10"
     guidetolerance="10"
     inkscape:pageopacity="0"
     inkscape:pageshadow="2"
     inkscape:window-width="1920"
     inkscape:window-height="1016"
     id="namedview4"
     showgrid="false"
     inkscape:zoom="0.96370291"
     inkscape:cx="68.298203"
     inkscape:cy="99.793564"
     inkscape:window-x="0"
     inkscape:window-y="27"
     inkscape:window-maximized="1"
     inkscape:current-layer="g10"
     fit-margin-top="0"
     fit-margin-left="0"
     fit-margin-right="0"
     fit-margin-bottom="0" /><g
     id="g10"
     inkscape:groupmode="layer"
     inkscape:label="ArtStation-logomark-dark"
     transform="matrix(1.25,0,0,-1.25,-64.272125,180.52275)"><g
       id="g14"
       style="fill:#000000"><g
         id="g16"
         clip-path="url(#clipPath18)"
         style="fill:#000000"><g
           id="g22"
           transform="translate(51.4177,72.6479)"
           style="fill:#000000"><path
             d="m 0,0 8.935,-15.445 0.002,-10e-4 c 1.76,-3.485 5.37,-5.876 9.54,-5.876 l 0.008,0 0,0 59.301,0 L 65.48,0 0,0 Z"
             style="fill:#000000;fill-opacity:1;fill-rule:nonzero;stroke:none"
             id="path24"
             inkscape:connector-curvature="0" /></g><g
           id="g26"
           transform="translate(157.1949,72.5382)"
           style="fill:#000000"><path
             d="M 0,0 C 0,2.135 -0.629,4.123 -1.708,5.792 L -36.458,66.2 c -1.794,3.378 -5.347,5.68 -9.44,5.68 l -18.365,0 53.676,-93.001 8.461,14.655 C -0.457,-3.659 0,-2.417 0,0"
             style="fill:#000000;fill-opacity:1;fill-rule:nonzero;stroke:none"
             id="path28"
             inkscape:connector-curvature="0" /></g><g
           id="g30"
           transform="translate(108.1461,87.798)"
           style="fill:#000000"><path
             d="M 0,0 -23.991,41.553 -47.982,0 0,0 Z"
             style="fill:#000000;fill-opacity:1;fill-rule:nonzero;stroke:none"
             id="path32"
             inkscape:connector-curvature="0" /></g></g></g></g></svg>